HIERARCHY
ROOT Hips
{
	OFFSET 0.00000 0.00000 0.00000
	CHANNELS 6 Xposition Yposition Zposition Zrotation Yrotation Xrotation 
	JOINT LHipJoint
	{
		OFFSET 0 0 0
		CHANNELS 3 Zrotation Yrotation Xrotation
		JOINT LeftHip
		{
			OFFSET 1.32989 -1.57253 0.78074
			CHANNELS 3 Zrotation Yrotation Xrotation
			JOINT LeftKnee
			{
				OFFSET 2.24323 -6.16323 0.00000
				CHANNELS 3 Zrotation Yrotation Xrotation
				JOINT LeftAnkle
				{
					OFFSET 2.32677 -6.39275 0.00000
					CHANNELS 3 Zrotation Yrotation Xrotation
					JOINT LeftToe
					{
						OFFSET 0.18686 -0.51340 1.95973
						CHANNELS 3 Zrotation Yrotation Xrotation
						End Site
						{
							OFFSET 0.00000 -0.00000 1.02033
						}
					}
				}
			}
		}
	}
	JOINT RHipJoint
	{
		OFFSET 0 0 0
		CHANNELS 3 Zrotation Yrotation Xrotation
		JOINT RightHip
		{
			OFFSET -1.27392 -1.57253 0.78074
			CHANNELS 3 Zrotation Yrotation Xrotation
			JOINT RightKnee
			{
				OFFSET -2.19978 -6.04385 0.00000
				CHANNELS 3 Zrotation Yrotation Xrotation
				JOINT RightAnkle
				{
					OFFSET -2.29380 -6.30216 0.00000
					CHANNELS 3 Zrotation Yrotation Xrotation
					JOINT RightToe
					{
						OFFSET -0.24624 -0.67655 1.94854
						CHANNELS 3 Zrotation Yrotation Xrotation
						End Site
						{
							OFFSET -0.00000 -0.00000 1.03267
						}
					}
				}
			}
		}
	}
	JOINT lowerback
	{
		OFFSET 0 0 0
		CHANNELS 3 Zrotation Yrotation Xrotation
		JOINT Chest
		{
			OFFSET -0.05982 2.08655 0.02100
			CHANNELS 3 Zrotation Yrotation Xrotation
			JOINT Chest2
			{
				OFFSET 0.04735 2.08455 -0.01795
				CHANNELS 3 Zrotation Yrotation Xrotation
				JOINT lowerneck
				{
					OFFSET 0 0 0
					CHANNELS 3 Zrotation Yrotation Xrotation
					JOINT Neck
					{
						OFFSET -0.10038 1.43781 0.03084
						CHANNELS 3 Zrotation Yrotation Xrotation
						JOINT Head
						{
							OFFSET 0.07701 1.43632 -0.18495
							CHANNELS 3 Zrotation Yrotation Xrotation
							End Site
							{
								OFFSET 0.02744 1.45633 -0.07361
							}
						}
					}
				}
				JOINT LeftCollar
				{
					OFFSET 0 0 0
					CHANNELS 3 Zrotation Yrotation Xrotation
					JOINT LeftShoulder
					{
						OFFSET 2.75061 0.74389 0.25227
CHANNELS 3 Zrotation Xrotation Yrotation
						JOINT LeftElbow
						{
OFFSET 0 -4.369010 0.000000
CHANNELS 3 Zrotation Xrotation Yrotation
							JOINT LeftWrist
							{
OFFSET 0 -3.217370 -0.000000
CHANNELS 3 Zrotation Xrotation Yrotation
								JOINT lhand
								{
									OFFSET 0 0 0
CHANNELS 3 Zrotation Xrotation Yrotation
									JOINT LFingers
									{
OFFSET 0 -0.564310 0.000000
CHANNELS 3 Zrotation Xrotation Yrotation
										End Site
										{
OFFSET 0 -0.454960 0.000000
										}
									}
								}
								JOINT LThumb
								{
OFFSET 0 0.000000 0.000000
CHANNELS 3 Zrotation Xrotation Yrotation
									End Site
									{
OFFSET 0 -0.461910 0.461910
									}
								}
							}
						}
					}
				}
				JOINT RightCollar
				{
					OFFSET 0 0 0
					CHANNELS 3 Zrotation Yrotation Xrotation
					JOINT RightShoulder
					{
						OFFSET -2.97379 0.79094 0.48377
CHANNELS 3 Zrotation Xrotation Yrotation
						JOINT RightElbow
						{
OFFSET 0 -4.341180 -0.000000
CHANNELS 3 Zrotation Xrotation Yrotation
							JOINT RightWrist
							{
OFFSET 0 -3.095310 0.000000
CHANNELS 3 Zrotation Xrotation Yrotation
								JOINT rhand
								{
									OFFSET 0 0 0
CHANNELS 3 Zrotation Xrotation Yrotation
									JOINT RFingers
									{
OFFSET 0 -0.597450 0.000000
CHANNELS 3 Zrotation Xrotation Yrotation
										End Site
										{
OFFSET 0 -0.481680 0.000000
										}
									}
								}
								JOINT RThumb
								{
OFFSET 0 0.000000 0.000000
CHANNELS 3 Zrotation Xrotation Yrotation
									End Site
									{
OFFSET 0 -0.489030 0.489030
									}
								}
							}
						}
					}
				}
			}
		}
	}
}
MOTION
Frames: 6
Frame Time: 0.008333333333333333
6.109790 16.085621 10.614122 181.544244 5.728356 -503.043491 0.000000 0.000000 0.000000 -8.061862 -19.863572 -76.927861 17.029434 19.786582 81.284887 -179.933068 -2.773322 6.628033 2.446001 -9.730223 -28.114847 0.000000 0.000000 0.000000 10.793685 20.000006 -75.156333 -14.780558 -19.330245 74.572128 0.149798 -6.839518 -3.227500 -1.643971 8.078284 -22.953938 -1.598248 -0.996656 33.093634 1.812107 2.089764 13.904951 2.146664 2.217099 -2.033084 -3.811743 -4.304455 -12.321800 -1.801200 -4.244064 18.496839 -0.382290 -2.309512 7.795106 0.000000 0.000000 0.000000 9.329226 -3.393050 -30.417358 26.709930 -37.892805 9.323669 17.730901 -33.376171 -40.858120 0.000000 0.000000 0.000000 -7.125000 0.000000 0.000000 -27.849848 70.428868 17.346722 0.000000 0.000000 0.000000 -12.475692 1.192351 28.230625 -21.839365 -32.788215 -6.501718 -25.746989 -29.541195 -25.041907 0.000000 0.000000 0.000000 7.125000 0.000000 0.000000 2.315844 2.583858 2.210948
6.106761 16.101962 10.600492 181.617040 5.835996 -502.994813 0.000000 0.000000 0.000000 -7.723121 -19.934696 -77.629402 17.127256 19.800918 81.573945 -178.761760 -3.074273 5.970468 2.306176 -9.476672 -27.297967 0.000000 0.000000 0.000000 11.041124 20.412672 -75.328892 -14.515431 -19.262879 73.772364 0.119144 -6.198469 -3.388778 -1.706111 8.225004 -23.399799 -1.673913 -0.873340 32.316491 1.774122 2.159313 13.940395 2.195907 2.226959 -1.828625 -3.814764 -4.310792 -12.372247 -1.720512 -4.283357 18.347899 -0.358967 -2.323020 7.756678 0.000000 0.000000 0.000000 9.387090 -3.621043 -29.962817 26.205470 -37.410705 9.012270 18.153764 -33.052413 -40.884463 0.000000 0.000000 0.000000 -7.125000 0.000000 0.000000 -27.401453 70.590467 17.152015 0.000000 0.000000 0.000000 -12.091941 1.257105 28.016110 -21.406819 -32.300086 -6.266011 -25.803993 -29.397847 -25.024164 0.000000 0.000000 0.000000 7.125000 0.000000 0.000000 2.278863 2.590902 2.175289
6.102835 16.128337 10.569520 181.621067 5.986326 -503.378022 0.000000 0.000000 0.000000 -7.815702 -19.924260 -77.297936 16.941927 19.772563 81.025708 -57.996933 -3.674521 4.901980 2.223394 -9.313019 -26.782146 0.000000 0.000000 0.000000 11.345074 20.721386 -74.694954 -14.116586 -19.140165 72.552741 0.083340 -5.220481 -3.587597 -1.807752 8.446473 -24.083098 -1.846055 -0.786866 32.205018 1.736137 2.220922 13.959992 2.236812 2.253032 -1.760775 -3.831240 -4.299987 -12.437278 -1.621220 -4.299128 18.207098 -0.325478 -2.325067 7.724296 0.000000 0.000000 0.000000 9.436316 -4.037405 -29.532361 25.609483 -36.808208 8.657517 18.622541 -32.370322 -40.920904 0.000000 0.000000 0.000000 -7.125000 0.000000 0.000000 -26.904288 70.778112 16.932425 0.000000 0.000000 0.000000 -11.774435 1.237474 27.705550 -20.986632 -31.806210 -6.045984 -25.863588 -29.131178 -25.040674 0.000000 0.000000 0.000000 7.125000 0.000000 0.000000 2.244971 2.560903 2.144082
6.098909 16.154712 10.538548 181.625093 6.136657 -503.761230 0.000000 0.000000 0.000000 -7.908283 -19.913824 -76.966471 16.756597 19.744208 80.477471 62.767893 -4.274769 3.833493 2.140611 -9.149367 -26.266324 0.000000 0.000000 0.000000 11.649024 21.030101 -74.061015 -13.717740 -19.017451 71.333117 0.047535 -4.242494 -3.786416 -1.909393 8.667942 -24.766398 -2.018197 -0.700392 32.093545 1.698151 2.282530 13.979588 2.277716 2.279105 -1.692925 -3.847716 -4.289182 -12.502310 -1.521928 -4.314899 18.066298 -0.291989 -2.327114 7.691915 0.000000 0.000000 0.000000 9.485543 -4.453767 -29.101906 25.013496 -36.205712 8.302764 19.091317 -31.688230 -40.957346 0.000000 0.000000 0.000000 -7.125000 0.000000 0.000000 -26.407124 70.965757 16.712835 0.000000 0.000000 0.000000 -11.456928 1.217844 27.394990 -20.566444 -31.312334 -5.825958 -25.923184 -28.864509 -25.057183 0.000000 0.000000 0.000000 7.125000 0.000000 0.000000 2.211080 2.530904 2.112875
6.094904 16.180392 10.508185 181.627568 6.283318 -504.133280 0.000000 0.000000 0.000000 -7.991445 -19.910047 -76.648127 16.566344 19.714677 79.914459 179.927291 -4.873156 2.773429 2.058731 -8.987314 -25.755677 0.000000 0.000000 0.000000 11.940329 21.341116 -73.443727 -13.317428 -18.893296 70.108088 0.012388 -3.272524 -3.977966 -2.008588 8.884011 -25.433083 -2.187332 -0.615025 31.976991 1.661197 2.342167 13.995926 2.318686 2.303813 -1.626564 -3.864654 -4.278681 -12.569157 -1.423710 -4.330458 17.928235 -0.258826 -2.329173 7.660751 0.000000 0.000000 0.000000 9.536136 -4.873994 -28.676585 24.416935 -35.601461 7.948161 19.561441 -30.999198 -40.996496 0.000000 0.000000 0.000000 -7.125000 0.000000 0.000000 -25.912658 71.156272 16.496289 0.000000 0.000000 0.000000 -11.140133 1.191486 27.079754 -20.143750 -30.814731 -5.604993 -25.983603 -28.589582 -25.069763 0.000000 0.000000 0.000000 7.125000 0.000000 0.000000 2.176152 2.504918 2.080527
6.088327 16.183479 10.497649 181.579583 6.310734 -504.142676 0.000000 0.000000 0.000000 -7.768499 -20.122657 -76.756245 16.216053 19.646894 78.871239 179.910245 -5.411024 1.987146 2.006183 -8.877217 -25.413205 0.000000 0.000000 0.000000 11.820702 21.726909 -73.367589 -12.869456 -18.722329 68.707397 -0.001403 -2.563118 -3.933269 -2.028285 8.924580 -25.559824 -2.258739 -0.565597 31.695289 1.657741 2.337704 13.906331 2.361772 2.284149 -1.608612 -3.896599 -4.278043 -12.695026 -1.360390 -4.339116 17.879142 -0.236243 -2.331623 7.669174 0.000000 0.000000 0.000000 9.631133 -5.419848 -28.418137 23.801721 -34.940208 7.598441 20.075350 -30.084598 -41.123673 0.000000 0.000000 0.000000 -7.125000 0.000000 0.000000 -25.505893 71.440088 16.378676 0.000000 0.000000 0.000000 -10.846452 0.946460 26.612555 -19.639572 -30.196027 -5.353525 -26.070815 -28.046278 -24.954633 0.000000 0.000000 0.000000 7.125000 0.000000 0.000000 2.107530 2.609378 2.011066
